# xmcd
#
# Track frame offsets:
#   150
#   17628
#   35390
#   50048
#   65617
#   80358
#   97207
#   115999
#   132125
#   147042
#   162799
#   178206
#   199028
#
# Disc length: 3006 seconds
#
# Revision: 0
# Processed by: cddbd v1.5.1PL2 Copyright (c) Steve Scherf et al.
# Submitted via: GXTranscoder 2.0.1939
#
DISCID=b40bbc0d
DTITLE=ttt - uuuu
DYEAR=2001
DGENRE=Classical
TTITLE0=111
TTITLE1=2222
TTITLE2=3333
TTITLE3=4444
TTITLE4=5
TTITLE5=6
TTITLE6=88
TTITLE7=99
TTITLE8=1001
TTITLE9=555
TTITLE10=45
TTITLE11=8
TTITLE12=6666666
EXTD=
EXTT0=
EXTT1=
EXTT2=
EXTT3=
EXTT4=
EXTT5=
EXTT6=
EXTT7=
EXTT8=
EXTT9=
EXTT10=
EXTT11=
EXTT12=
PLAYORDER=
